<?xml version="1.0" standalone="no"?><!DOCTYPE svg PUBLIC "-//W3C//DTD SVG 1.1//EN" "http://www.w3.org/Graphics/SVG/1.1/DTD/svg11.dtd"><svg t="1577265064359" class="icon" viewBox="0 0 1024 1024" version="1.1" xmlns="http://www.w3.org/2000/svg" p-id="2033" width="128" height="128" xmlns:xlink="http://www.w3.org/1999/xlink"><defs><style type="text/css"></style></defs><path d="M24.381622 72.093886m32.074841-11.674288l0 0q32.074841-11.674288 43.749129 20.400554l310.202498 852.274359q11.674288 32.074841-20.400553 43.749129l0 0q-32.074841 11.674288-43.749129-20.400554l-310.202498-852.274359q-11.674288-32.074841 20.400553-43.749129Z" fill="#bfcbd9" p-id="2034"></path><path d="M117.906286 156.867048c130.584381-78.019048 241.030095-117.028571 331.385904-117.028572 135.460571 0 219.136 53.00419 330.898286 53.004191 74.50819 0 147.260952-27.452952 218.307048-82.358857v497.859047c-29.549714 54.272-89.234286 81.383619-179.053714 81.383619-134.729143 0-177.883429-32.036571-320.853334-32.036571-95.329524 0-159.939048 36.473905-193.731047 109.32419L117.906286 156.867048z" fill="#bfcbd9" p-id="2035"></path></svg>