<?xml version="1.0" standalone="no"?><!DOCTYPE svg PUBLIC "-//W3C//DTD SVG 1.1//EN" "http://www.w3.org/Graphics/SVG/1.1/DTD/svg11.dtd"><svg t="1577264082195" class="icon" viewBox="0 0 1024 1024" version="1.1" xmlns="http://www.w3.org/2000/svg" p-id="12996" width="128" height="128" xmlns:xlink="http://www.w3.org/1999/xlink"><defs><style type="text/css"></style></defs><path d="M928 0c-54.4 0-96 41.6-96 96 0 28.8 12.8 54.4 32 70.4L678.4 608H672c-19.2 0-38.4 6.4-54.4 19.2l-172.8-121.6c3.2-9.6 3.2-16 3.2-25.6 0-54.4-41.6-96-96-96s-96 41.6-96 96c0 22.4 9.6 44.8 22.4 60.8L112 832H96c-54.4 0-96 41.6-96 96s41.6 96 96 96 96-41.6 96-96c0-22.4-9.6-44.8-22.4-60.8l166.4-291.2c6.4 0 9.6 3.2 16 3.2 19.2 0 38.4-6.4 54.4-19.2l172.8 121.6c-3.2 6.4-3.2 12.8-3.2 22.4 0 54.4 41.6 96 96 96s96-41.6 96-96c0-28.8-12.8-54.4-32-70.4L921.6 192h6.4c54.4 0 96-41.6 96-96s-41.6-96-96-96zM128 960H64v-64h64v64z m256-448h-64v-64h64v64z m320 224h-64v-64h64v64z m256-608h-64V64h64v64z" fill="#bfcbd9" p-id="12997"></path></svg>