<?xml version="1.0" standalone="no"?><!DOCTYPE svg PUBLIC "-//W3C//DTD SVG 1.1//EN" "http://www.w3.org/Graphics/SVG/1.1/DTD/svg11.dtd"><svg t="1577262967946" class="icon" viewBox="0 0 1024 1024" version="1.1" xmlns="http://www.w3.org/2000/svg" p-id="5777" width="128" height="128" xmlns:xlink="http://www.w3.org/1999/xlink"><defs><style type="text/css"></style></defs><path d="M448 256h405.333333v42.666667H448M277.333333 298.666667H192v-42.666667h85.333333M448 341.333333h405.333333v42.666667H448M256 384H192v-42.666667h64" p-id="5778" fill="#bfcbd9"></path><path d="M277.333333 499.2c-2.56-5.546667-58.88-138.24-3.626666-252.586667 7.253333-15.146667 29.44-60.586667 67.84-59.306666s58.026667 51.413333 61.653333 61.44l-40.106667 14.506666c-5.76-15.786667-18.133333-33.066667-23.893333-33.28s-10.453333 1.066667-27.093333 35.413334c-46.506667 96.213333 3.84 215.68 4.266666 216.746666z" p-id="5779" fill="#bfcbd9"></path><path d="M341.333333 499.2c-2.56-5.546667-58.88-138.24-3.626666-252.586667 7.253333-15.146667 29.226667-60.586667 67.84-59.306666s58.026667 51.413333 61.653333 61.44l-40.106667 14.506666c-5.76-15.786667-18.133333-33.066667-23.893333-33.28s-10.453333 1.066667-27.093333 35.413334c-46.506667 96.213333 3.84 215.68 4.266666 216.746666z" p-id="5780" fill="#bfcbd9"></path><path d="M405.333333 499.2c-2.56-5.546667-58.88-138.24-3.626666-252.586667 7.253333-15.146667 29.653333-60.586667 67.84-59.306666s58.026667 51.413333 61.653333 61.44l-40.106667 14.506666c-5.76-15.786667-18.133333-33.066667-23.893333-33.28s-10.453333 1.066667-27.093333 35.413334c-46.506667 96.213333 3.84 215.68 4.266666 216.746666z" p-id="5781" fill="#bfcbd9"></path><path d="M821.333333 572.8A320 320 0 0 1 192 512h640c0 6.4-1.493333 12.586667-2.346667 18.986667l42.666667 6.613333A376.746667 376.746667 0 0 0 874.666667 490.666667v-21.333334H149.333333v21.333334a362.666667 362.666667 0 0 0 713.813334 88.96z" p-id="5782" fill="#bfcbd9"></path></svg>