<svg t="1574332109328" class="icon" viewBox="0 0 1024 1024" version="1.1" xmlns="http://www.w3.org/2000/svg" p-id="1179" width="128" height="128"><path d="M522.666667 64a138.602667 138.602667 0 0 0-117.653334 65.344l-13.973333 22.442667a128.917333 128.917333 0 0 1-104.832 60.693333l-39.381333 1.408a140.096 140.096 0 0 0-116.864 70.933333 143.061333 143.061333 0 0 0-2.368 136.725334l13.482666 25.834666c21.12 40.490667 21.12 88.746667 0 129.237334L127.573333 602.453333a143.061333 143.061333 0 0 0 2.346667 136.746667 140.074667 140.074667 0 0 0 116.906667 70.912l39.317333 1.386667a128.938667 128.938667 0 0 1 104.853333 60.714666l13.994667 22.442667a138.602667 138.602667 0 0 0 235.306667 0l14.08-22.656a129.024 129.024 0 0 1 105.173333-60.757333l35.477333-1.216a143.594667 143.594667 0 0 0 118.656-70.314667 139.434667 139.434667 0 0 0 2.453334-137.856l-14.058667-25.770667a133.824 133.824 0 0 1 0-128.170666l14.058667-25.770667a139.434667 139.434667 0 0 0-2.453334-137.856 143.616 143.616 0 0 0-118.656-70.336l-35.498666-1.194667a129.045333 129.045333 0 0 1-105.130667-60.778666l-14.101333-22.634667A138.602667 138.602667 0 0 0 522.666667 64z m0 64c25.770667 0 49.706667 13.290667 63.317333 35.178667l14.101333 22.613333a193.045333 193.045333 0 0 0 157.290667 90.922667l35.498667 1.216a79.616 79.616 0 0 1 65.770666 38.976 75.434667 75.434667 0 0 1 1.322667 74.581333l-14.058667 25.770667a197.824 197.824 0 0 0 0 189.482666l14.08 25.770667a75.434667 75.434667 0 0 1-1.344 74.581333 79.594667 79.594667 0 0 1-65.770666 38.976l-35.498667 1.216a193.024 193.024 0 0 0-157.290667 90.88l-14.08 22.656a74.581333 74.581333 0 0 1-126.677333 0l-13.973333-22.442666a192.938667 192.938667 0 0 0-156.906667-90.837334l-39.338667-1.386666a76.074667 76.074667 0 0 1-63.466666-38.528 79.061333 79.061333 0 0 1-1.322667-75.562667l13.482667-25.834667a203.669333 203.669333 0 0 0 0-188.458666l-13.482667-25.813334a79.061333 79.061333 0 0 1 1.322667-75.584 76.096 76.096 0 0 1 63.488-38.528l39.36-1.408a192.917333 192.917333 0 0 0 156.864-90.816l13.994666-22.442666A74.602667 74.602667 0 0 1 522.666667 128z" fill="#262626" p-id="1180"></path><path d="M512 352a160 160 0 1 0 0 320 160 160 0 0 0 0-320z m0 64a96 96 0 1 1 0 192 96 96 0 0 1 0-192z" fill="#262626" p-id="1181"></path></svg>